<?xml version="1.0" encoding="UTF-8"?>
<svg xmlns="http://www.w3.org/2000/svg" xmlns:xlink="http://www.w3.org/1999/xlink" width="854" height="480" viewBox="0 0 854 480">
<defs>
<g>
<g id="glyph-0-0">
<path d="M 1.296875 -4.328125 L 1.296875 -2.5 L 2.0625 -2.5 C 2.363281 -2.5 2.597656 -2.578125 2.765625 -2.734375 C 2.941406 -2.898438 3.03125 -3.125 3.03125 -3.40625 C 3.03125 -3.695312 2.941406 -3.921875 2.765625 -4.078125 C 2.597656 -4.242188 2.363281 -4.328125 2.0625 -4.328125 Z M 0.640625 -4.859375 L 2.0625 -4.859375 C 2.601562 -4.859375 3.015625 -4.734375 3.296875 -4.484375 C 3.578125 -4.242188 3.71875 -3.882812 3.71875 -3.40625 C 3.71875 -2.925781 3.578125 -2.5625 3.296875 -2.3125 C 3.015625 -2.070312 2.601562 -1.953125 2.0625 -1.953125 L 1.296875 -1.953125 L 1.296875 0 L 0.640625 0 Z "/>
</g>
<g id="glyph-0-1">
<path d="M 3.625 -1.96875 L 3.625 -1.6875 L 1.03125 -1.6875 L 1.03125 -1.65625 C 1.03125 -1.257812 1.128906 -0.953125 1.328125 -0.734375 C 1.535156 -0.515625 1.832031 -0.40625 2.21875 -0.40625 C 2.40625 -0.40625 2.601562 -0.4375 2.8125 -0.5 C 3.019531 -0.5625 3.242188 -0.65625 3.484375 -0.78125 L 3.484375 -0.1875 C 3.253906 -0.09375 3.03125 -0.0234375 2.8125 0.015625 C 2.601562 0.0664062 2.398438 0.09375 2.203125 0.09375 C 1.640625 0.09375 1.195312 -0.0703125 0.875 -0.40625 C 0.5625 -0.75 0.40625 -1.222656 0.40625 -1.828125 C 0.40625 -2.398438 0.5625 -2.859375 0.875 -3.203125 C 1.1875 -3.554688 1.601562 -3.734375 2.125 -3.734375 C 2.582031 -3.734375 2.945312 -3.578125 3.21875 -3.265625 C 3.488281 -2.953125 3.625 -2.519531 3.625 -1.96875 Z M 3.015625 -2.15625 C 3.015625 -2.5 2.929688 -2.765625 2.765625 -2.953125 C 2.609375 -3.140625 2.382812 -3.234375 2.09375 -3.234375 C 1.800781 -3.234375 1.5625 -3.132812 1.375 -2.9375 C 1.1875 -2.75 1.078125 -2.484375 1.046875 -2.140625 Z "/>
</g>
<g id="glyph-0-2">
<path d="M 2.28125 -1.828125 L 2.09375 -1.828125 C 1.738281 -1.828125 1.472656 -1.765625 1.296875 -1.640625 C 1.117188 -1.523438 1.03125 -1.34375 1.03125 -1.09375 C 1.03125 -0.875 1.097656 -0.703125 1.234375 -0.578125 C 1.367188 -0.460938 1.550781 -0.40625 1.78125 -0.40625 C 2.113281 -0.40625 2.375 -0.519531 2.5625 -0.75 C 2.75 -0.976562 2.84375 -1.296875 2.84375 -1.703125 L 2.84375 -1.828125 Z M 3.453125 -2.078125 L 3.453125 0 L 2.84375 0 L 2.84375 -0.546875 C 2.71875 -0.328125 2.554688 -0.164062 2.359375 -0.0625 C 2.171875 0.0390625 1.9375 0.09375 1.65625 0.09375 C 1.28125 0.09375 0.984375 -0.0078125 0.765625 -0.21875 C 0.546875 -0.425781 0.4375 -0.707031 0.4375 -1.0625 C 0.4375 -1.46875 0.570312 -1.773438 0.84375 -1.984375 C 1.113281 -2.191406 1.515625 -2.296875 2.046875 -2.296875 L 2.84375 -2.296875 L 2.84375 -2.390625 C 2.84375 -2.679688 2.769531 -2.894531 2.625 -3.03125 C 2.476562 -3.164062 2.242188 -3.234375 1.921875 -3.234375 C 1.722656 -3.234375 1.519531 -3.203125 1.3125 -3.140625 C 1.101562 -3.078125 0.898438 -2.992188 0.703125 -2.890625 L 0.703125 -3.484375 C 0.921875 -3.566406 1.128906 -3.628906 1.328125 -3.671875 C 1.535156 -3.710938 1.734375 -3.734375 1.921875 -3.734375 C 2.222656 -3.734375 2.476562 -3.6875 2.6875 -3.59375 C 2.90625 -3.507812 3.082031 -3.378906 3.21875 -3.203125 C 3.300781 -3.097656 3.359375 -2.960938 3.390625 -2.796875 C 3.429688 -2.640625 3.453125 -2.398438 3.453125 -2.078125 Z "/>
</g>
<g id="glyph-0-3">
<path d="M 3.765625 -2.890625 C 3.640625 -2.992188 3.507812 -3.066406 3.375 -3.109375 C 3.238281 -3.160156 3.09375 -3.1875 2.9375 -3.1875 C 2.5625 -3.1875 2.273438 -3.066406 2.078125 -2.828125 C 1.878906 -2.597656 1.78125 -2.257812 1.78125 -1.8125 L 1.78125 0 L 1.171875 0 L 1.171875 -3.65625 L 1.78125 -3.65625 L 1.78125 -2.9375 C 1.882812 -3.195312 2.035156 -3.394531 2.234375 -3.53125 C 2.441406 -3.664062 2.691406 -3.734375 2.984375 -3.734375 C 3.128906 -3.734375 3.265625 -3.710938 3.390625 -3.671875 C 3.523438 -3.640625 3.648438 -3.585938 3.765625 -3.515625 Z "/>
</g>
<g id="glyph-0-4">
<path d="M 1.21875 -0.546875 L 3.453125 -0.546875 L 3.453125 0 L 0.5 0 L 0.5 -0.546875 C 0.90625 -0.984375 1.257812 -1.363281 1.5625 -1.6875 C 1.863281 -2.007812 2.070312 -2.238281 2.1875 -2.375 C 2.40625 -2.644531 2.550781 -2.859375 2.625 -3.015625 C 2.707031 -3.179688 2.75 -3.351562 2.75 -3.53125 C 2.75 -3.800781 2.664062 -4.007812 2.5 -4.15625 C 2.34375 -4.3125 2.125 -4.390625 1.84375 -4.390625 C 1.644531 -4.390625 1.4375 -4.351562 1.21875 -4.28125 C 1.007812 -4.21875 0.78125 -4.113281 0.53125 -3.96875 L 0.53125 -4.625 C 0.757812 -4.726562 0.976562 -4.804688 1.1875 -4.859375 C 1.40625 -4.921875 1.617188 -4.953125 1.828125 -4.953125 C 2.304688 -4.953125 2.691406 -4.820312 2.984375 -4.5625 C 3.273438 -4.3125 3.421875 -3.984375 3.421875 -3.578125 C 3.421875 -3.367188 3.367188 -3.160156 3.265625 -2.953125 C 3.171875 -2.742188 3.015625 -2.515625 2.796875 -2.265625 C 2.679688 -2.117188 2.503906 -1.921875 2.265625 -1.671875 C 2.035156 -1.421875 1.6875 -1.046875 1.21875 -0.546875 Z "/>
</g>
</g>
</defs>
<g fill="rgb(74.117647%, 57.647059%, 97.647059%)" fill-opacity="1">
<use xlink:href="#glyph-0-0" x="30" y="26.188477"/>
<use xlink:href="#glyph-0-1" x="34" y="26.188477"/>
<use xlink:href="#glyph-0-2" x="38" y="26.188477"/>
<use xlink:href="#glyph-0-3" x="42" y="26.188477"/>
<use xlink:href="#glyph-0-0" x="46" y="26.188477"/>
<use xlink:href="#glyph-0-4" x="50" y="26.188477"/>
<use xlink:href="#glyph-0-0" x="54" y="26.188477"/>
</g>
</svg>
