<?xml version="1.0" encoding="UTF-8"?>
<svg xmlns="http://www.w3.org/2000/svg" xmlns:xlink="http://www.w3.org/1999/xlink" width="854" height="480" viewBox="0 0 854 480">
<defs>
<g>
<g id="glyph-0-0">
<path d="M 4.265625 0.15625 C 4.203125 0.164062 4.148438 0.171875 4.109375 0.171875 C 4.066406 0.179688 4.03125 0.1875 4 0.1875 C 2.882812 0.1875 2.035156 -0.234375 1.453125 -1.078125 C 0.878906 -1.929688 0.59375 -3.1875 0.59375 -4.84375 C 0.59375 -6.507812 0.878906 -7.765625 1.453125 -8.609375 C 2.035156 -9.460938 2.890625 -9.890625 4.015625 -9.890625 C 5.140625 -9.890625 5.988281 -9.460938 6.5625 -8.609375 C 7.132812 -7.765625 7.421875 -6.507812 7.421875 -4.84375 C 7.421875 -3.707031 7.285156 -2.753906 7.015625 -1.984375 C 6.742188 -1.210938 6.347656 -0.660156 5.828125 -0.328125 L 7.03125 0.859375 L 5.71875 1.828125 Z M 4.015625 -8.171875 C 3.523438 -8.171875 3.164062 -7.90625 2.9375 -7.375 C 2.707031 -6.851562 2.59375 -6.007812 2.59375 -4.84375 C 2.59375 -3.6875 2.707031 -2.84375 2.9375 -2.3125 C 3.164062 -1.789062 3.523438 -1.53125 4.015625 -1.53125 C 4.503906 -1.53125 4.859375 -1.789062 5.078125 -2.3125 C 5.304688 -2.84375 5.421875 -3.6875 5.421875 -4.84375 C 5.421875 -6.007812 5.304688 -6.851562 5.078125 -7.375 C 4.859375 -7.90625 4.503906 -8.171875 4.015625 -8.171875 Z "/>
</g>
<g id="glyph-0-1">
<path d="M 4.015625 -1.59375 L 5.71875 -9.71875 L 7.65625 -9.71875 L 5.34375 0 L 2.6875 0 L 0.375 -9.71875 L 2.296875 -9.71875 Z "/>
</g>
<g id="glyph-0-2">
<path d="M 4.015625 -7.953125 L 3.109375 -3.984375 L 4.921875 -3.984375 Z M 2.84375 -9.71875 L 5.1875 -9.71875 L 7.8125 0 L 5.890625 0 L 5.296875 -2.40625 L 2.71875 -2.40625 L 2.140625 0 L 0.21875 0 Z "/>
</g>
<g id="glyph-0-3">
<path d="M 7.03125 -0.28125 C 6.726562 -0.125 6.410156 -0.0078125 6.078125 0.0625 C 5.742188 0.144531 5.394531 0.1875 5.03125 0.1875 C 3.71875 0.1875 2.710938 -0.242188 2.015625 -1.109375 C 1.328125 -1.972656 0.984375 -3.21875 0.984375 -4.84375 C 0.984375 -6.476562 1.328125 -7.726562 2.015625 -8.59375 C 2.710938 -9.457031 3.71875 -9.890625 5.03125 -9.890625 C 5.394531 -9.890625 5.742188 -9.847656 6.078125 -9.765625 C 6.421875 -9.691406 6.738281 -9.578125 7.03125 -9.421875 L 7.03125 -7.28125 C 6.707031 -7.59375 6.390625 -7.816406 6.078125 -7.953125 C 5.765625 -8.097656 5.441406 -8.171875 5.109375 -8.171875 C 4.410156 -8.171875 3.878906 -7.890625 3.515625 -7.328125 C 3.160156 -6.773438 2.984375 -5.945312 2.984375 -4.84375 C 2.984375 -3.75 3.160156 -2.921875 3.515625 -2.359375 C 3.878906 -1.804688 4.410156 -1.53125 5.109375 -1.53125 C 5.441406 -1.53125 5.765625 -1.597656 6.078125 -1.734375 C 6.390625 -1.878906 6.707031 -2.109375 7.03125 -2.421875 Z "/>
</g>
<g id="glyph-0-4">
<path d="M 1.953125 -4.78125 L 6.0625 -4.78125 L 6.0625 -2.890625 L 1.953125 -2.890625 Z "/>
</g>
<g id="glyph-0-5">
<path d="M 2.96875 -8.109375 L 2.96875 -5.25 L 3.765625 -5.25 C 4.390625 -5.25 4.828125 -5.351562 5.078125 -5.5625 C 5.335938 -5.78125 5.46875 -6.148438 5.46875 -6.671875 C 5.46875 -7.203125 5.335938 -7.570312 5.078125 -7.78125 C 4.828125 -8 4.390625 -8.109375 3.765625 -8.109375 Z M 1.046875 -9.71875 L 3.6875 -9.71875 C 5.03125 -9.71875 5.992188 -9.476562 6.578125 -9 C 7.171875 -8.519531 7.46875 -7.742188 7.46875 -6.671875 C 7.46875 -5.597656 7.171875 -4.820312 6.578125 -4.34375 C 5.992188 -3.875 5.03125 -3.640625 3.6875 -3.640625 L 2.96875 -3.640625 L 2.96875 0 L 1.046875 0 Z "/>
</g>
<g id="glyph-0-6">
<path d="M 7.171875 -0.359375 C 6.734375 -0.171875 6.28125 -0.0351562 5.8125 0.046875 C 5.351562 0.140625 4.867188 0.1875 4.359375 0.1875 C 3.140625 0.1875 2.207031 -0.132812 1.5625 -0.78125 C 0.914062 -1.4375 0.59375 -2.378906 0.59375 -3.609375 C 0.59375 -4.796875 0.898438 -5.734375 1.515625 -6.421875 C 2.140625 -7.117188 2.988281 -7.46875 4.0625 -7.46875 C 5.144531 -7.46875 5.984375 -7.144531 6.578125 -6.5 C 7.179688 -5.863281 7.484375 -4.960938 7.484375 -3.796875 L 7.484375 -3.03125 L 2.53125 -3.03125 C 2.539062 -2.457031 2.710938 -2.03125 3.046875 -1.75 C 3.378906 -1.46875 3.878906 -1.328125 4.546875 -1.328125 C 4.984375 -1.328125 5.410156 -1.390625 5.828125 -1.515625 C 6.253906 -1.640625 6.703125 -1.835938 7.171875 -2.109375 Z M 5.5625 -4.453125 C 5.550781 -4.960938 5.421875 -5.34375 5.171875 -5.59375 C 4.921875 -5.851562 4.550781 -5.984375 4.0625 -5.984375 C 3.625 -5.984375 3.273438 -5.847656 3.015625 -5.578125 C 2.753906 -5.316406 2.601562 -4.941406 2.5625 -4.453125 Z "/>
</g>
<g id="glyph-0-7">
<path d="M 4.5625 -3.421875 C 3.84375 -3.421875 3.34375 -3.328125 3.0625 -3.140625 C 2.78125 -2.960938 2.640625 -2.65625 2.640625 -2.21875 C 2.640625 -1.882812 2.738281 -1.617188 2.9375 -1.421875 C 3.132812 -1.222656 3.398438 -1.125 3.734375 -1.125 C 4.234375 -1.125 4.617188 -1.3125 4.890625 -1.6875 C 5.171875 -2.070312 5.3125 -2.609375 5.3125 -3.296875 L 5.3125 -3.421875 Z M 7.203125 -4.15625 L 7.203125 0 L 5.3125 0 L 5.3125 -0.8125 C 5.082031 -0.488281 4.785156 -0.238281 4.421875 -0.0625 C 4.066406 0.101562 3.671875 0.1875 3.234375 0.1875 C 2.410156 0.1875 1.765625 -0.03125 1.296875 -0.46875 C 0.835938 -0.90625 0.609375 -1.515625 0.609375 -2.296875 C 0.609375 -3.148438 0.882812 -3.78125 1.4375 -4.1875 C 1.988281 -4.59375 2.84375 -4.796875 4 -4.796875 L 5.3125 -4.796875 L 5.3125 -5.109375 C 5.3125 -5.421875 5.195312 -5.65625 4.96875 -5.8125 C 4.75 -5.96875 4.425781 -6.046875 4 -6.046875 C 3.539062 -6.046875 3.097656 -5.988281 2.671875 -5.875 C 2.242188 -5.757812 1.796875 -5.578125 1.328125 -5.328125 L 1.328125 -6.953125 C 1.753906 -7.128906 2.179688 -7.257812 2.609375 -7.34375 C 3.046875 -7.425781 3.507812 -7.46875 4 -7.46875 C 5.175781 -7.46875 6.003906 -7.222656 6.484375 -6.734375 C 6.960938 -6.253906 7.203125 -5.394531 7.203125 -4.15625 Z "/>
</g>
<g id="glyph-0-8">
<path d="M 7.484375 -5.28125 C 7.273438 -5.46875 7.03125 -5.609375 6.75 -5.703125 C 6.476562 -5.796875 6.175781 -5.84375 5.84375 -5.84375 C 5.4375 -5.84375 5.082031 -5.769531 4.78125 -5.625 C 4.476562 -5.488281 4.242188 -5.289062 4.078125 -5.03125 C 3.972656 -4.863281 3.898438 -4.660156 3.859375 -4.421875 C 3.816406 -4.191406 3.796875 -3.835938 3.796875 -3.359375 L 3.796875 0 L 1.890625 0 L 1.890625 -7.28125 L 3.796875 -7.28125 L 3.796875 -6.15625 C 3.984375 -6.570312 4.269531 -6.894531 4.65625 -7.125 C 5.039062 -7.351562 5.492188 -7.46875 6.015625 -7.46875 C 6.273438 -7.46875 6.53125 -7.4375 6.78125 -7.375 C 7.03125 -7.3125 7.265625 -7.21875 7.484375 -7.09375 Z "/>
</g>
<g id="glyph-0-9">
</g>
<g id="glyph-0-10">
<path d="M 0.5625 -9.71875 L 2.84375 -9.71875 L 4.015625 -5.453125 L 5.15625 -9.71875 L 7.46875 -9.71875 L 7.46875 0 L 5.8125 0 L 5.8125 -7.78125 L 4.78125 -3.53125 L 3.25 -3.53125 L 2.21875 -7.78125 L 2.21875 0 L 0.5625 0 Z "/>
</g>
<g id="glyph-0-11">
<path d="M 1.4375 -7.28125 L 5.21875 -7.28125 L 5.21875 -1.46875 L 7.578125 -1.46875 L 7.578125 0 L 0.9375 0 L 0.9375 -1.46875 L 3.3125 -1.46875 L 3.3125 -5.828125 L 1.4375 -5.828125 Z M 3.3125 -10.828125 L 5.21875 -10.828125 L 5.21875 -8.609375 L 3.3125 -8.609375 Z "/>
</g>
<g id="glyph-0-12">
<path d="M 6.96875 -4.734375 L 6.96875 0 L 5.078125 0 L 5.078125 -4.4375 C 5.078125 -4.96875 5 -5.347656 4.84375 -5.578125 C 4.695312 -5.804688 4.457031 -5.921875 4.125 -5.921875 C 3.78125 -5.921875 3.507812 -5.765625 3.3125 -5.453125 C 3.113281 -5.140625 3.015625 -4.710938 3.015625 -4.171875 L 3.015625 0 L 1.125 0 L 1.125 -7.28125 L 3.015625 -7.28125 L 3.015625 -6.203125 C 3.148438 -6.597656 3.378906 -6.90625 3.703125 -7.125 C 4.023438 -7.351562 4.414062 -7.46875 4.875 -7.46875 C 5.570312 -7.46875 6.09375 -7.238281 6.4375 -6.78125 C 6.789062 -6.320312 6.96875 -5.640625 6.96875 -4.734375 Z "/>
</g>
<g id="glyph-0-13">
<path d="M 0.78125 -9.71875 L 2.84375 -9.71875 L 5.546875 -2.65625 L 5.546875 -9.71875 L 7.234375 -9.71875 L 7.234375 0 L 5.1875 0 L 2.46875 -7.0625 L 2.46875 0 L 0.78125 0 Z "/>
</g>
<g id="glyph-0-14">
<path d="M 4.015625 -5.921875 C 3.554688 -5.921875 3.195312 -5.71875 2.9375 -5.3125 C 2.675781 -4.914062 2.546875 -4.359375 2.546875 -3.640625 C 2.546875 -2.921875 2.675781 -2.359375 2.9375 -1.953125 C 3.195312 -1.554688 3.554688 -1.359375 4.015625 -1.359375 C 4.472656 -1.359375 4.832031 -1.554688 5.09375 -1.953125 C 5.351562 -2.359375 5.484375 -2.921875 5.484375 -3.640625 C 5.484375 -4.359375 5.351562 -4.914062 5.09375 -5.3125 C 4.832031 -5.71875 4.472656 -5.921875 4.015625 -5.921875 Z M 0.640625 -3.640625 C 0.640625 -4.816406 0.941406 -5.75 1.546875 -6.4375 C 2.160156 -7.125 2.984375 -7.46875 4.015625 -7.46875 C 5.046875 -7.46875 5.863281 -7.125 6.46875 -6.4375 C 7.082031 -5.75 7.390625 -4.816406 7.390625 -3.640625 C 7.390625 -2.460938 7.082031 -1.53125 6.46875 -0.84375 C 5.863281 -0.15625 5.046875 0.1875 4.015625 0.1875 C 2.984375 0.1875 2.160156 -0.15625 1.546875 -0.84375 C 0.941406 -1.53125 0.640625 -2.460938 0.640625 -3.640625 Z "/>
</g>
<g id="glyph-0-15">
<path d="M 5.140625 -6.25 L 5.140625 -10.125 L 7.046875 -10.125 L 7.046875 0 L 5.140625 0 L 5.140625 -1.078125 C 4.941406 -0.660156 4.679688 -0.34375 4.359375 -0.125 C 4.035156 0.0820312 3.65625 0.1875 3.21875 0.1875 C 2.382812 0.1875 1.734375 -0.144531 1.265625 -0.8125 C 0.804688 -1.476562 0.578125 -2.421875 0.578125 -3.640625 C 0.578125 -4.867188 0.8125 -5.8125 1.28125 -6.46875 C 1.75 -7.132812 2.414062 -7.46875 3.28125 -7.46875 C 3.664062 -7.46875 4.015625 -7.363281 4.328125 -7.15625 C 4.640625 -6.957031 4.910156 -6.65625 5.140625 -6.25 Z M 2.5 -3.625 C 2.5 -2.925781 2.613281 -2.375 2.84375 -1.96875 C 3.082031 -1.570312 3.40625 -1.375 3.8125 -1.375 C 4.226562 -1.375 4.550781 -1.570312 4.78125 -1.96875 C 5.019531 -2.375 5.140625 -2.925781 5.140625 -3.625 C 5.140625 -4.320312 5.019531 -4.867188 4.78125 -5.265625 C 4.550781 -5.671875 4.226562 -5.875 3.8125 -5.875 C 3.40625 -5.875 3.082031 -5.671875 2.84375 -5.265625 C 2.613281 -4.867188 2.5 -4.320312 2.5 -3.625 Z "/>
</g>
</g>
</defs>
<g fill="rgb(0%, 96.078431%, 100%)" fill-opacity="1">
<use xlink:href="#glyph-0-0" x="30" y="32.375977"/>
<use xlink:href="#glyph-0-1" x="38" y="32.375977"/>
<use xlink:href="#glyph-0-2" x="46" y="32.375977"/>
<use xlink:href="#glyph-0-3" x="54" y="32.375977"/>
<use xlink:href="#glyph-0-4" x="62" y="32.375977"/>
<use xlink:href="#glyph-0-5" x="70" y="32.375977"/>
<use xlink:href="#glyph-0-6" x="78" y="32.375977"/>
<use xlink:href="#glyph-0-7" x="86" y="32.375977"/>
<use xlink:href="#glyph-0-8" x="94" y="32.375977"/>
<use xlink:href="#glyph-0-9" x="102" y="32.375977"/>
<use xlink:href="#glyph-0-10" x="110" y="32.375977"/>
<use xlink:href="#glyph-0-11" x="118" y="32.375977"/>
<use xlink:href="#glyph-0-12" x="126" y="32.375977"/>
<use xlink:href="#glyph-0-6" x="134" y="32.375977"/>
<use xlink:href="#glyph-0-8" x="142" y="32.375977"/>
<use xlink:href="#glyph-0-9" x="150" y="32.375977"/>
<use xlink:href="#glyph-0-13" x="158" y="32.375977"/>
<use xlink:href="#glyph-0-14" x="166" y="32.375977"/>
<use xlink:href="#glyph-0-15" x="174" y="32.375977"/>
<use xlink:href="#glyph-0-6" x="182" y="32.375977"/>
</g>
</svg>
