<?xml version="1.0" encoding="UTF-8"?>
<svg xmlns="http://www.w3.org/2000/svg" xmlns:xlink="http://www.w3.org/1999/xlink" width="854" height="480" viewBox="0 0 854 480">
<defs>
<g>
<g id="glyph-0-0">
<path d="M 0 -5.671875 L 0.75 -5.671875 L 1.296875 -1.0625 L 1.9375 -4.109375 L 2.734375 -4.109375 L 3.390625 -1.0625 L 3.9375 -5.671875 L 4.6875 -5.671875 L 3.84375 0 L 3.109375 0 L 2.34375 -3.375 L 1.578125 0 L 0.84375 0 Z "/>
</g>
<g id="glyph-0-1">
<path d="M 4.21875 -2.296875 L 4.21875 -1.953125 L 1.203125 -1.953125 L 1.203125 -1.9375 C 1.203125 -1.476562 1.320312 -1.117188 1.5625 -0.859375 C 1.800781 -0.609375 2.140625 -0.484375 2.578125 -0.484375 C 2.804688 -0.484375 3.039062 -0.515625 3.28125 -0.578125 C 3.519531 -0.648438 3.78125 -0.757812 4.0625 -0.90625 L 4.0625 -0.21875 C 3.789062 -0.101562 3.53125 -0.0195312 3.28125 0.03125 C 3.039062 0.0820312 2.804688 0.109375 2.578125 0.109375 C 1.910156 0.109375 1.390625 -0.0859375 1.015625 -0.484375 C 0.648438 -0.878906 0.46875 -1.425781 0.46875 -2.125 C 0.46875 -2.800781 0.648438 -3.34375 1.015625 -3.75 C 1.378906 -4.15625 1.863281 -4.359375 2.46875 -4.359375 C 3.007812 -4.359375 3.4375 -4.171875 3.75 -3.796875 C 4.0625 -3.429688 4.21875 -2.929688 4.21875 -2.296875 Z M 3.53125 -2.5 C 3.519531 -2.914062 3.421875 -3.226562 3.234375 -3.4375 C 3.046875 -3.65625 2.78125 -3.765625 2.4375 -3.765625 C 2.101562 -3.765625 1.828125 -3.648438 1.609375 -3.421875 C 1.390625 -3.203125 1.257812 -2.894531 1.21875 -2.5 Z "/>
</g>
<g id="glyph-0-2">
<path d="M 3.484375 -2.125 C 3.484375 -2.664062 3.394531 -3.070312 3.21875 -3.34375 C 3.050781 -3.625 2.800781 -3.765625 2.46875 -3.765625 C 2.125 -3.765625 1.863281 -3.625 1.6875 -3.34375 C 1.519531 -3.070312 1.4375 -2.664062 1.4375 -2.125 C 1.4375 -1.582031 1.519531 -1.171875 1.6875 -0.890625 C 1.863281 -0.617188 2.125 -0.484375 2.46875 -0.484375 C 2.800781 -0.484375 3.050781 -0.617188 3.21875 -0.890625 C 3.394531 -1.171875 3.484375 -1.582031 3.484375 -2.125 Z M 1.4375 -3.71875 C 1.539062 -3.925781 1.691406 -4.082031 1.890625 -4.1875 C 2.085938 -4.300781 2.316406 -4.359375 2.578125 -4.359375 C 3.085938 -4.359375 3.488281 -4.160156 3.78125 -3.765625 C 4.070312 -3.367188 4.21875 -2.828125 4.21875 -2.140625 C 4.21875 -1.441406 4.070312 -0.890625 3.78125 -0.484375 C 3.488281 -0.0859375 3.082031 0.109375 2.5625 0.109375 C 2.3125 0.109375 2.085938 0.0546875 1.890625 -0.046875 C 1.703125 -0.160156 1.550781 -0.320312 1.4375 -0.53125 L 1.4375 0 L 0.734375 0 L 0.734375 -5.90625 L 1.4375 -5.90625 Z "/>
</g>
<g id="glyph-0-3">
<path d="M 3.84375 -5.484375 L 3.84375 -4.703125 C 3.613281 -4.847656 3.378906 -4.957031 3.140625 -5.03125 C 2.910156 -5.113281 2.675781 -5.15625 2.4375 -5.15625 C 2.070312 -5.15625 1.785156 -5.066406 1.578125 -4.890625 C 1.367188 -4.722656 1.265625 -4.5 1.265625 -4.21875 C 1.265625 -3.96875 1.332031 -3.773438 1.46875 -3.640625 C 1.601562 -3.515625 1.859375 -3.40625 2.234375 -3.3125 L 2.640625 -3.21875 C 3.171875 -3.09375 3.554688 -2.894531 3.796875 -2.625 C 4.046875 -2.363281 4.171875 -2.003906 4.171875 -1.546875 C 4.171875 -1.003906 4.003906 -0.59375 3.671875 -0.3125 C 3.335938 -0.03125 2.851562 0.109375 2.21875 0.109375 C 1.945312 0.109375 1.675781 0.078125 1.40625 0.015625 C 1.132812 -0.0351562 0.863281 -0.117188 0.59375 -0.234375 L 0.59375 -1.046875 C 0.882812 -0.859375 1.160156 -0.722656 1.421875 -0.640625 C 1.679688 -0.554688 1.945312 -0.515625 2.21875 -0.515625 C 2.601562 -0.515625 2.898438 -0.597656 3.109375 -0.765625 C 3.328125 -0.941406 3.4375 -1.1875 3.4375 -1.5 C 3.4375 -1.78125 3.363281 -1.992188 3.21875 -2.140625 C 3.070312 -2.296875 2.8125 -2.414062 2.4375 -2.5 L 2.03125 -2.59375 C 1.507812 -2.707031 1.128906 -2.882812 0.890625 -3.125 C 0.648438 -3.363281 0.53125 -3.6875 0.53125 -4.09375 C 0.53125 -4.601562 0.695312 -5.007812 1.03125 -5.3125 C 1.375 -5.625 1.828125 -5.78125 2.390625 -5.78125 C 2.609375 -5.78125 2.835938 -5.753906 3.078125 -5.703125 C 3.328125 -5.648438 3.582031 -5.578125 3.84375 -5.484375 Z "/>
</g>
<g id="glyph-0-4">
<path d="M 4.390625 -3.375 C 4.242188 -3.488281 4.09375 -3.570312 3.9375 -3.625 C 3.78125 -3.6875 3.609375 -3.71875 3.421875 -3.71875 C 2.984375 -3.71875 2.648438 -3.578125 2.421875 -3.296875 C 2.191406 -3.023438 2.078125 -2.628906 2.078125 -2.109375 L 2.078125 0 L 1.375 0 L 1.375 -4.25 L 2.078125 -4.25 L 2.078125 -3.421875 C 2.191406 -3.722656 2.367188 -3.953125 2.609375 -4.109375 C 2.859375 -4.273438 3.144531 -4.359375 3.46875 -4.359375 C 3.644531 -4.359375 3.804688 -4.335938 3.953125 -4.296875 C 4.109375 -4.253906 4.253906 -4.1875 4.390625 -4.09375 Z "/>
</g>
<g id="glyph-0-5">
<path d="M 0.375 -4.25 L 1.109375 -4.25 L 2.34375 -0.6875 L 3.578125 -4.25 L 4.3125 -4.25 L 2.796875 0 L 1.890625 0 Z "/>
</g>
</g>
</defs>
<g fill="rgb(74.117647%, 57.647059%, 97.647059%)" fill-opacity="1">
<use xlink:href="#glyph-0-0" x="30" y="27.21875"/>
<use xlink:href="#glyph-0-1" x="35" y="27.21875"/>
<use xlink:href="#glyph-0-2" x="40" y="27.21875"/>
<use xlink:href="#glyph-0-3" x="45" y="27.21875"/>
<use xlink:href="#glyph-0-1" x="50" y="27.21875"/>
<use xlink:href="#glyph-0-4" x="55" y="27.21875"/>
<use xlink:href="#glyph-0-5" x="60" y="27.21875"/>
<use xlink:href="#glyph-0-1" x="65" y="27.21875"/>
<use xlink:href="#glyph-0-4" x="70" y="27.21875"/>
</g>
</svg>
