<?xml version="1.0" encoding="UTF-8"?>
<svg xmlns="http://www.w3.org/2000/svg" xmlns:xlink="http://www.w3.org/1999/xlink" width="854" height="480" viewBox="0 0 854 480">
<defs>
<g>
<g id="glyph-0-0">
<path d="M 3.015625 -6.421875 L 1.96875 -2.6875 L 4.046875 -2.6875 Z M 2.40625 -7.296875 L 3.609375 -7.296875 L 5.84375 0 L 4.8125 0 L 4.28125 -1.90625 L 1.734375 -1.90625 L 1.203125 0 L 0.1875 0 Z "/>
</g>
<g id="glyph-0-1">
<path d="M 5.640625 -4.34375 C 5.453125 -4.488281 5.253906 -4.59375 5.046875 -4.65625 C 4.847656 -4.726562 4.632812 -4.765625 4.40625 -4.765625 C 3.84375 -4.765625 3.410156 -4.585938 3.109375 -4.234375 C 2.816406 -3.890625 2.671875 -3.382812 2.671875 -2.71875 L 2.671875 0 L 1.765625 0 L 1.765625 -5.46875 L 2.671875 -5.46875 L 2.671875 -4.40625 C 2.816406 -4.789062 3.046875 -5.082031 3.359375 -5.28125 C 3.671875 -5.488281 4.039062 -5.59375 4.46875 -5.59375 C 4.6875 -5.59375 4.890625 -5.566406 5.078125 -5.515625 C 5.273438 -5.460938 5.460938 -5.378906 5.640625 -5.265625 Z "/>
</g>
<g id="glyph-0-2">
<path d="M 5.1875 -0.28125 C 4.9375 -0.132812 4.679688 -0.03125 4.421875 0.03125 C 4.171875 0.101562 3.914062 0.140625 3.65625 0.140625 C 2.8125 0.140625 2.148438 -0.109375 1.671875 -0.609375 C 1.191406 -1.117188 0.953125 -1.828125 0.953125 -2.734375 C 0.953125 -3.628906 1.191406 -4.328125 1.671875 -4.828125 C 2.148438 -5.335938 2.8125 -5.59375 3.65625 -5.59375 C 3.914062 -5.59375 4.171875 -5.554688 4.421875 -5.484375 C 4.671875 -5.421875 4.925781 -5.320312 5.1875 -5.1875 L 5.1875 -4.234375 C 4.945312 -4.453125 4.707031 -4.609375 4.46875 -4.703125 C 4.226562 -4.796875 3.957031 -4.84375 3.65625 -4.84375 C 3.09375 -4.84375 2.660156 -4.660156 2.359375 -4.296875 C 2.054688 -3.929688 1.90625 -3.410156 1.90625 -2.734375 C 1.90625 -2.054688 2.054688 -1.535156 2.359375 -1.171875 C 2.660156 -0.804688 3.09375 -0.625 3.65625 -0.625 C 3.96875 -0.625 4.242188 -0.671875 4.484375 -0.765625 C 4.734375 -0.859375 4.96875 -1.007812 5.1875 -1.21875 Z "/>
</g>
<g id="glyph-0-3">
<path d="M 5.125 -3.390625 L 5.125 0 L 4.234375 0 L 4.234375 -3.390625 C 4.234375 -3.878906 4.144531 -4.238281 3.96875 -4.46875 C 3.800781 -4.695312 3.53125 -4.8125 3.15625 -4.8125 C 2.738281 -4.8125 2.414062 -4.660156 2.1875 -4.359375 C 1.957031 -4.066406 1.84375 -3.644531 1.84375 -3.09375 L 1.84375 0 L 0.953125 0 L 0.953125 -7.59375 L 1.84375 -7.59375 L 1.84375 -4.65625 C 2.007812 -4.96875 2.226562 -5.203125 2.5 -5.359375 C 2.769531 -5.515625 3.09375 -5.59375 3.46875 -5.59375 C 4.03125 -5.59375 4.445312 -5.410156 4.71875 -5.046875 C 4.988281 -4.679688 5.125 -4.128906 5.125 -3.390625 Z "/>
</g>
<g id="glyph-0-4">
<path d="M 1.25 -5.46875 L 3.546875 -5.46875 L 3.546875 -0.703125 L 5.328125 -0.703125 L 5.328125 0 L 0.875 0 L 0.875 -0.703125 L 2.65625 -0.703125 L 2.65625 -4.765625 L 1.25 -4.765625 Z M 2.65625 -7.59375 L 3.546875 -7.59375 L 3.546875 -6.453125 L 2.65625 -6.453125 Z "/>
</g>
<g id="glyph-0-5">
<path d="M 3 -7.015625 L 3 -5.46875 L 5.046875 -5.46875 L 5.046875 -4.765625 L 3 -4.765625 L 3 -1.796875 C 3 -1.398438 3.070312 -1.117188 3.21875 -0.953125 C 3.375 -0.796875 3.644531 -0.71875 4.03125 -0.71875 L 5.046875 -0.71875 L 5.046875 0 L 3.9375 0 C 3.269531 0 2.796875 -0.132812 2.515625 -0.40625 C 2.234375 -0.675781 2.09375 -1.140625 2.09375 -1.796875 L 2.09375 -4.765625 L 0.640625 -4.765625 L 0.640625 -5.46875 L 2.09375 -5.46875 L 2.09375 -7.015625 Z "/>
</g>
<g id="glyph-0-6">
<path d="M 5.4375 -2.953125 L 5.4375 -2.515625 L 1.53125 -2.515625 L 1.53125 -2.484375 C 1.53125 -1.890625 1.6875 -1.429688 2 -1.109375 C 2.3125 -0.785156 2.753906 -0.625 3.328125 -0.625 C 3.609375 -0.625 3.90625 -0.664062 4.21875 -0.75 C 4.53125 -0.84375 4.863281 -0.984375 5.21875 -1.171875 L 5.21875 -0.28125 C 4.875 -0.132812 4.539062 -0.03125 4.21875 0.03125 C 3.90625 0.101562 3.601562 0.140625 3.3125 0.140625 C 2.457031 0.140625 1.789062 -0.113281 1.3125 -0.625 C 0.832031 -1.132812 0.59375 -1.835938 0.59375 -2.734375 C 0.59375 -3.597656 0.828125 -4.289062 1.296875 -4.8125 C 1.765625 -5.332031 2.390625 -5.59375 3.171875 -5.59375 C 3.867188 -5.59375 4.421875 -5.359375 4.828125 -4.890625 C 5.234375 -4.421875 5.4375 -3.773438 5.4375 -2.953125 Z M 4.53125 -3.21875 C 4.519531 -3.75 4.394531 -4.148438 4.15625 -4.421875 C 3.914062 -4.703125 3.578125 -4.84375 3.140625 -4.84375 C 2.703125 -4.84375 2.34375 -4.695312 2.0625 -4.40625 C 1.789062 -4.125 1.628906 -3.726562 1.578125 -3.21875 Z "/>
</g>
<g id="glyph-0-7">
<path d="M 0.953125 -2.078125 L 0.953125 -5.453125 L 1.84375 -5.453125 L 1.84375 -2.078125 C 1.84375 -1.578125 1.929688 -1.210938 2.109375 -0.984375 C 2.285156 -0.753906 2.554688 -0.640625 2.921875 -0.640625 C 3.347656 -0.640625 3.671875 -0.785156 3.890625 -1.078125 C 4.117188 -1.378906 4.234375 -1.8125 4.234375 -2.375 L 4.234375 -5.453125 L 5.125 -5.453125 L 5.125 0 L 4.234375 0 L 4.234375 -0.828125 C 4.066406 -0.503906 3.847656 -0.257812 3.578125 -0.09375 C 3.304688 0.0625 2.984375 0.140625 2.609375 0.140625 C 2.046875 0.140625 1.628906 -0.0390625 1.359375 -0.40625 C 1.085938 -0.769531 0.953125 -1.328125 0.953125 -2.078125 Z "/>
</g>
<g id="glyph-0-8">
</g>
<g id="glyph-0-9">
<path d="M 2.125 -0.8125 C 2.957031 -0.8125 3.535156 -1.015625 3.859375 -1.421875 C 4.191406 -1.828125 4.359375 -2.566406 4.359375 -3.640625 C 4.359375 -4.710938 4.191406 -5.453125 3.859375 -5.859375 C 3.535156 -6.273438 2.957031 -6.484375 2.125 -6.484375 L 1.65625 -6.484375 L 1.65625 -0.8125 Z M 2.15625 -7.296875 C 3.257812 -7.296875 4.078125 -7 4.609375 -6.40625 C 5.140625 -5.8125 5.40625 -4.890625 5.40625 -3.640625 C 5.40625 -2.390625 5.140625 -1.46875 4.609375 -0.875 C 4.078125 -0.289062 3.257812 0 2.15625 0 L 0.671875 0 L 0.671875 -7.296875 Z "/>
</g>
<g id="glyph-0-10">
<path d="M 1.828125 -0.6875 L 1.828125 2.078125 L 0.921875 2.078125 L 0.921875 -5.46875 L 1.828125 -5.46875 L 1.828125 -4.765625 C 1.984375 -5.035156 2.179688 -5.238281 2.421875 -5.375 C 2.671875 -5.519531 2.960938 -5.59375 3.296875 -5.59375 C 3.953125 -5.59375 4.46875 -5.335938 4.84375 -4.828125 C 5.21875 -4.316406 5.40625 -3.609375 5.40625 -2.703125 C 5.40625 -1.816406 5.21875 -1.117188 4.84375 -0.609375 C 4.46875 -0.109375 3.953125 0.140625 3.296875 0.140625 C 2.960938 0.140625 2.671875 0.0703125 2.421875 -0.0625 C 2.171875 -0.207031 1.972656 -0.414062 1.828125 -0.6875 Z M 4.46875 -2.734375 C 4.46875 -3.429688 4.359375 -3.957031 4.140625 -4.3125 C 3.921875 -4.664062 3.59375 -4.84375 3.15625 -4.84375 C 2.71875 -4.84375 2.382812 -4.660156 2.15625 -4.296875 C 1.9375 -3.941406 1.828125 -3.421875 1.828125 -2.734375 C 1.828125 -2.035156 1.9375 -1.507812 2.15625 -1.15625 C 2.382812 -0.800781 2.71875 -0.625 3.15625 -0.625 C 3.59375 -0.625 3.921875 -0.800781 4.140625 -1.15625 C 4.359375 -1.507812 4.46875 -2.035156 4.46875 -2.734375 Z "/>
</g>
<g id="glyph-0-11">
<path d="M 0.484375 -5.46875 L 1.421875 -5.46875 L 3.015625 -0.875 L 4.59375 -5.46875 L 5.53125 -5.46875 L 3.59375 0 L 2.4375 0 Z "/>
</g>
</g>
</defs>
<g fill="rgb(0%, 89.803922%, 100%)" fill-opacity="1">
<use xlink:href="#glyph-0-0" x="30" y="29.282227"/>
<use xlink:href="#glyph-0-1" x="36" y="29.282227"/>
<use xlink:href="#glyph-0-2" x="42" y="29.282227"/>
<use xlink:href="#glyph-0-3" x="48" y="29.282227"/>
<use xlink:href="#glyph-0-4" x="54" y="29.282227"/>
<use xlink:href="#glyph-0-5" x="60" y="29.282227"/>
<use xlink:href="#glyph-0-6" x="66" y="29.282227"/>
<use xlink:href="#glyph-0-2" x="72" y="29.282227"/>
<use xlink:href="#glyph-0-5" x="78" y="29.282227"/>
<use xlink:href="#glyph-0-7" x="84" y="29.282227"/>
<use xlink:href="#glyph-0-1" x="90" y="29.282227"/>
<use xlink:href="#glyph-0-6" x="96" y="29.282227"/>
<use xlink:href="#glyph-0-8" x="102" y="29.282227"/>
<use xlink:href="#glyph-0-9" x="108" y="29.282227"/>
<use xlink:href="#glyph-0-6" x="114" y="29.282227"/>
<use xlink:href="#glyph-0-6" x="120" y="29.282227"/>
<use xlink:href="#glyph-0-10" x="126" y="29.282227"/>
<use xlink:href="#glyph-0-8" x="132" y="29.282227"/>
<use xlink:href="#glyph-0-9" x="138" y="29.282227"/>
<use xlink:href="#glyph-0-4" x="144" y="29.282227"/>
<use xlink:href="#glyph-0-11" x="150" y="29.282227"/>
<use xlink:href="#glyph-0-6" x="156" y="29.282227"/>
</g>
</svg>
