<?xml version="1.0" encoding="UTF-8"?>
<svg xmlns="http://www.w3.org/2000/svg" xmlns:xlink="http://www.w3.org/1999/xlink" width="854" height="480" viewBox="0 0 854 480">
<defs>
<g>
<g id="glyph-0-0">
<path d="M 2.140625 0.09375 C 2.117188 0.09375 2.09375 0.09375 2.0625 0.09375 C 2.039062 0.09375 2.019531 0.09375 2 0.09375 C 1.457031 0.09375 1.050781 -0.113281 0.78125 -0.53125 C 0.507812 -0.945312 0.375 -1.578125 0.375 -2.421875 C 0.375 -3.273438 0.507812 -3.910156 0.78125 -4.328125 C 1.050781 -4.742188 1.457031 -4.953125 2 -4.953125 C 2.550781 -4.953125 2.960938 -4.742188 3.234375 -4.328125 C 3.503906 -3.910156 3.640625 -3.273438 3.640625 -2.421875 C 3.640625 -1.785156 3.5625 -1.269531 3.40625 -0.875 C 3.257812 -0.488281 3.035156 -0.21875 2.734375 -0.0625 L 3.390625 0.546875 L 2.890625 0.875 Z M 2.953125 -2.421875 C 2.953125 -3.140625 2.878906 -3.648438 2.734375 -3.953125 C 2.585938 -4.265625 2.34375 -4.421875 2 -4.421875 C 1.675781 -4.421875 1.4375 -4.265625 1.28125 -3.953125 C 1.132812 -3.648438 1.0625 -3.140625 1.0625 -2.421875 C 1.0625 -1.710938 1.132812 -1.203125 1.28125 -0.890625 C 1.4375 -0.585938 1.675781 -0.4375 2 -0.4375 C 2.34375 -0.4375 2.585938 -0.585938 2.734375 -0.890625 C 2.878906 -1.203125 2.953125 -1.710938 2.953125 -2.421875 Z "/>
</g>
<g id="glyph-0-1">
<path d="M 2 -0.546875 L 3.15625 -4.859375 L 3.828125 -4.859375 L 2.40625 0 L 1.609375 0 L 0.1875 -4.859375 L 0.859375 -4.859375 Z "/>
</g>
<g id="glyph-0-2">
<path d="M 2 -4.28125 L 1.3125 -1.796875 L 2.703125 -1.796875 Z M 1.609375 -4.859375 L 2.40625 -4.859375 L 3.890625 0 L 3.21875 0 L 2.859375 -1.265625 L 1.15625 -1.265625 L 0.796875 0 L 0.125 0 Z "/>
</g>
<g id="glyph-0-3">
<path d="M 3.5 -0.171875 C 3.332031 -0.0859375 3.160156 -0.0234375 2.984375 0.015625 C 2.804688 0.0664062 2.617188 0.09375 2.421875 0.09375 C 1.796875 0.09375 1.3125 -0.125 0.96875 -0.5625 C 0.625 -1.007812 0.453125 -1.628906 0.453125 -2.421875 C 0.453125 -3.222656 0.625 -3.84375 0.96875 -4.28125 C 1.3125 -4.726562 1.796875 -4.953125 2.421875 -4.953125 C 2.617188 -4.953125 2.804688 -4.925781 2.984375 -4.875 C 3.160156 -4.832031 3.332031 -4.769531 3.5 -4.6875 L 3.5 -4.015625 C 3.332031 -4.140625 3.15625 -4.238281 2.96875 -4.3125 C 2.789062 -4.382812 2.609375 -4.421875 2.421875 -4.421875 C 1.992188 -4.421875 1.671875 -4.253906 1.453125 -3.921875 C 1.242188 -3.585938 1.140625 -3.085938 1.140625 -2.421875 C 1.140625 -1.765625 1.242188 -1.269531 1.453125 -0.9375 C 1.671875 -0.601562 1.992188 -0.4375 2.421875 -0.4375 C 2.609375 -0.4375 2.789062 -0.46875 2.96875 -0.53125 C 3.15625 -0.601562 3.332031 -0.707031 3.5 -0.84375 Z "/>
</g>
<g id="glyph-0-4">
</g>
<g id="glyph-0-5">
<path d="M 0.65625 -4.859375 L 3.359375 -4.859375 L 3.359375 -4.3125 L 2.328125 -4.3125 L 2.328125 -0.546875 L 3.359375 -0.546875 L 3.359375 0 L 0.65625 0 L 0.65625 -0.546875 L 1.671875 -0.546875 L 1.671875 -4.3125 L 0.65625 -4.3125 Z "/>
</g>
<g id="glyph-0-6">
<path d="M 3.421875 -2.265625 L 3.421875 0 L 2.828125 0 L 2.828125 -2.265625 C 2.828125 -2.585938 2.765625 -2.828125 2.640625 -2.984375 C 2.523438 -3.140625 2.347656 -3.21875 2.109375 -3.21875 C 1.828125 -3.21875 1.609375 -3.117188 1.453125 -2.921875 C 1.304688 -2.722656 1.234375 -2.4375 1.234375 -2.0625 L 1.234375 0 L 0.640625 0 L 0.640625 -3.65625 L 1.234375 -3.65625 L 1.234375 -3.09375 C 1.335938 -3.3125 1.476562 -3.472656 1.65625 -3.578125 C 1.84375 -3.679688 2.0625 -3.734375 2.3125 -3.734375 C 2.6875 -3.734375 2.960938 -3.609375 3.140625 -3.359375 C 3.328125 -3.117188 3.421875 -2.753906 3.421875 -2.265625 Z "/>
</g>
<g id="glyph-0-7">
<path d="M 3.46875 -5.0625 L 3.46875 -4.578125 L 2.78125 -4.578125 C 2.5625 -4.578125 2.410156 -4.53125 2.328125 -4.4375 C 2.242188 -4.351562 2.203125 -4.195312 2.203125 -3.96875 L 2.203125 -3.65625 L 3.46875 -3.65625 L 3.46875 -3.1875 L 2.203125 -3.1875 L 2.203125 0 L 1.609375 0 L 1.609375 -3.1875 L 0.640625 -3.1875 L 0.640625 -3.65625 L 1.609375 -3.65625 L 1.609375 -3.90625 C 1.609375 -4.300781 1.695312 -4.59375 1.875 -4.78125 C 2.0625 -4.96875 2.351562 -5.0625 2.75 -5.0625 Z "/>
</g>
<g id="glyph-0-8">
<path d="M 3.625 -1.96875 L 3.625 -1.6875 L 1.03125 -1.6875 L 1.03125 -1.65625 C 1.03125 -1.257812 1.128906 -0.953125 1.328125 -0.734375 C 1.535156 -0.515625 1.832031 -0.40625 2.21875 -0.40625 C 2.40625 -0.40625 2.601562 -0.4375 2.8125 -0.5 C 3.019531 -0.5625 3.242188 -0.65625 3.484375 -0.78125 L 3.484375 -0.1875 C 3.253906 -0.09375 3.03125 -0.0234375 2.8125 0.015625 C 2.601562 0.0664062 2.398438 0.09375 2.203125 0.09375 C 1.640625 0.09375 1.195312 -0.0703125 0.875 -0.40625 C 0.5625 -0.75 0.40625 -1.222656 0.40625 -1.828125 C 0.40625 -2.398438 0.5625 -2.859375 0.875 -3.203125 C 1.1875 -3.554688 1.601562 -3.734375 2.125 -3.734375 C 2.582031 -3.734375 2.945312 -3.578125 3.21875 -3.265625 C 3.488281 -2.953125 3.625 -2.519531 3.625 -1.96875 Z M 3.015625 -2.15625 C 3.015625 -2.5 2.929688 -2.765625 2.765625 -2.953125 C 2.609375 -3.140625 2.382812 -3.234375 2.09375 -3.234375 C 1.800781 -3.234375 1.5625 -3.132812 1.375 -2.9375 C 1.1875 -2.75 1.078125 -2.484375 1.046875 -2.140625 Z "/>
</g>
<g id="glyph-0-9">
<path d="M 3.765625 -2.890625 C 3.640625 -2.992188 3.507812 -3.066406 3.375 -3.109375 C 3.238281 -3.160156 3.09375 -3.1875 2.9375 -3.1875 C 2.5625 -3.1875 2.273438 -3.066406 2.078125 -2.828125 C 1.878906 -2.597656 1.78125 -2.257812 1.78125 -1.8125 L 1.78125 0 L 1.171875 0 L 1.171875 -3.65625 L 1.78125 -3.65625 L 1.78125 -2.9375 C 1.882812 -3.195312 2.035156 -3.394531 2.234375 -3.53125 C 2.441406 -3.664062 2.691406 -3.734375 2.984375 -3.734375 C 3.128906 -3.734375 3.265625 -3.710938 3.390625 -3.671875 C 3.523438 -3.640625 3.648438 -3.585938 3.765625 -3.515625 Z "/>
</g>
<g id="glyph-0-10">
<path d="M 3.453125 -0.1875 C 3.296875 -0.09375 3.128906 -0.0234375 2.953125 0.015625 C 2.785156 0.0664062 2.613281 0.09375 2.4375 0.09375 C 1.875 0.09375 1.429688 -0.0703125 1.109375 -0.40625 C 0.796875 -0.75 0.640625 -1.222656 0.640625 -1.828125 C 0.640625 -2.421875 0.796875 -2.882812 1.109375 -3.21875 C 1.429688 -3.5625 1.875 -3.734375 2.4375 -3.734375 C 2.613281 -3.734375 2.785156 -3.707031 2.953125 -3.65625 C 3.117188 -3.613281 3.285156 -3.546875 3.453125 -3.453125 L 3.453125 -2.828125 C 3.296875 -2.972656 3.132812 -3.078125 2.96875 -3.140625 C 2.8125 -3.203125 2.632812 -3.234375 2.4375 -3.234375 C 2.0625 -3.234375 1.769531 -3.109375 1.5625 -2.859375 C 1.363281 -2.617188 1.265625 -2.273438 1.265625 -1.828125 C 1.265625 -1.367188 1.363281 -1.015625 1.5625 -0.765625 C 1.769531 -0.523438 2.0625 -0.40625 2.4375 -0.40625 C 2.644531 -0.40625 2.832031 -0.4375 3 -0.5 C 3.164062 -0.570312 3.316406 -0.675781 3.453125 -0.8125 Z "/>
</g>
</g>
</defs>
<g fill="rgb(22.352941%, 100%, 7.843137%)" fill-opacity="1">
<use xlink:href="#glyph-0-0" x="30" y="26.188477"/>
<use xlink:href="#glyph-0-1" x="34" y="26.188477"/>
<use xlink:href="#glyph-0-2" x="38" y="26.188477"/>
<use xlink:href="#glyph-0-3" x="42" y="26.188477"/>
<use xlink:href="#glyph-0-4" x="46" y="26.188477"/>
</g>
<g fill="rgb(22.352941%, 100%, 7.843137%)" fill-opacity="1">
<use xlink:href="#glyph-0-5" x="30" y="32.688477"/>
<use xlink:href="#glyph-0-6" x="34" y="32.688477"/>
<use xlink:href="#glyph-0-7" x="38" y="32.688477"/>
<use xlink:href="#glyph-0-8" x="42" y="32.688477"/>
<use xlink:href="#glyph-0-9" x="46" y="32.688477"/>
<use xlink:href="#glyph-0-8" x="50" y="32.688477"/>
<use xlink:href="#glyph-0-6" x="54" y="32.688477"/>
<use xlink:href="#glyph-0-10" x="58" y="32.688477"/>
<use xlink:href="#glyph-0-8" x="62" y="32.688477"/>
</g>
</svg>
