<?xml version="1.0" encoding="UTF-8"?>
<svg xmlns="http://www.w3.org/2000/svg" xmlns:xlink="http://www.w3.org/1999/xlink" width="854" height="480" viewBox="0 0 854 480">
<defs>
<g>
<g id="glyph-0-0">
<path d="M 0.375 -4.0625 L 1.078125 -4.0625 L 2.4375 -0.71875 L 2.4375 -4.0625 L 2.96875 -4.0625 L 2.96875 0 L 2.28125 0 L 0.90625 -3.34375 L 0.90625 0 L 0.375 0 Z "/>
</g>
<g id="glyph-0-1">
<path d="M 0.703125 -3.046875 L 1.96875 -3.046875 L 1.96875 -0.390625 L 2.96875 -0.390625 L 2.96875 0 L 0.484375 0 L 0.484375 -0.390625 L 1.46875 -0.390625 L 1.46875 -2.65625 L 0.703125 -2.65625 Z M 1.46875 -4.21875 L 1.96875 -4.21875 L 1.96875 -3.59375 L 1.46875 -3.59375 Z "/>
</g>
<g id="glyph-0-2">
<path d="M 2.328125 -1.546875 C 2.328125 -1.921875 2.265625 -2.203125 2.140625 -2.390625 C 2.023438 -2.585938 1.847656 -2.6875 1.609375 -2.6875 C 1.367188 -2.6875 1.179688 -2.585938 1.046875 -2.390625 C 0.921875 -2.203125 0.859375 -1.921875 0.859375 -1.546875 C 0.859375 -1.171875 0.921875 -0.882812 1.046875 -0.6875 C 1.179688 -0.488281 1.375 -0.390625 1.625 -0.390625 C 1.851562 -0.390625 2.023438 -0.488281 2.140625 -0.6875 C 2.265625 -0.882812 2.328125 -1.171875 2.328125 -1.546875 Z M 2.828125 -0.203125 C 2.828125 0.253906 2.71875 0.597656 2.5 0.828125 C 2.289062 1.066406 1.976562 1.1875 1.5625 1.1875 C 1.414062 1.1875 1.269531 1.175781 1.125 1.15625 C 0.976562 1.132812 0.828125 1.097656 0.671875 1.046875 L 0.671875 0.546875 C 0.847656 0.628906 1.007812 0.691406 1.15625 0.734375 C 1.300781 0.773438 1.4375 0.796875 1.5625 0.796875 C 1.832031 0.796875 2.023438 0.722656 2.140625 0.578125 C 2.265625 0.429688 2.328125 0.195312 2.328125 -0.125 L 2.328125 -0.484375 C 2.242188 -0.316406 2.132812 -0.191406 2 -0.109375 C 1.863281 -0.0234375 1.695312 0.015625 1.5 0.015625 C 1.144531 0.015625 0.859375 -0.125 0.640625 -0.40625 C 0.429688 -0.6875 0.328125 -1.066406 0.328125 -1.546875 C 0.328125 -2.023438 0.429688 -2.40625 0.640625 -2.6875 C 0.859375 -2.96875 1.144531 -3.109375 1.5 -3.109375 C 1.695312 -3.109375 1.863281 -3.066406 2 -2.984375 C 2.132812 -2.910156 2.242188 -2.796875 2.328125 -2.640625 L 2.328125 -3.03125 L 2.828125 -3.03125 Z "/>
</g>
<g id="glyph-0-3">
<path d="M 2.859375 -1.890625 L 2.859375 0 L 2.359375 0 L 2.359375 -1.890625 C 2.359375 -2.160156 2.304688 -2.359375 2.203125 -2.484375 C 2.109375 -2.617188 1.957031 -2.6875 1.75 -2.6875 C 1.519531 -2.6875 1.34375 -2.601562 1.21875 -2.4375 C 1.09375 -2.269531 1.03125 -2.03125 1.03125 -1.71875 L 1.03125 0 L 0.53125 0 L 0.53125 -4.21875 L 1.03125 -4.21875 L 1.03125 -2.578125 C 1.113281 -2.753906 1.234375 -2.882812 1.390625 -2.96875 C 1.546875 -3.0625 1.726562 -3.109375 1.9375 -3.109375 C 2.238281 -3.109375 2.46875 -3.003906 2.625 -2.796875 C 2.78125 -2.597656 2.859375 -2.296875 2.859375 -1.890625 Z "/>
</g>
<g id="glyph-0-4">
<path d="M 1.671875 -3.90625 L 1.671875 -3.046875 L 2.796875 -3.046875 L 2.796875 -2.65625 L 1.671875 -2.65625 L 1.671875 -1 C 1.671875 -0.78125 1.710938 -0.625 1.796875 -0.53125 C 1.878906 -0.445312 2.023438 -0.40625 2.234375 -0.40625 L 2.796875 -0.40625 L 2.796875 0 L 2.1875 0 C 1.8125 0 1.546875 -0.0703125 1.390625 -0.21875 C 1.242188 -0.375 1.171875 -0.632812 1.171875 -1 L 1.171875 -2.65625 L 0.359375 -2.65625 L 0.359375 -3.046875 L 1.171875 -3.046875 L 1.171875 -3.90625 Z "/>
</g>
</g>
</defs>
<g fill="rgb(0%, 89.803922%, 100%)" fill-opacity="1">
<use xlink:href="#glyph-0-0" x="30" y="25.157227"/>
<use xlink:href="#glyph-0-1" x="33" y="25.157227"/>
<use xlink:href="#glyph-0-2" x="36" y="25.157227"/>
<use xlink:href="#glyph-0-3" x="39" y="25.157227"/>
<use xlink:href="#glyph-0-4" x="42" y="25.157227"/>
</g>
</svg>
